<svg viewBox="0 0 22 22" fill="none" xmlns="http://www.w3.org/2000/svg" xmlns:xlink="http://www.w3.org/1999/xlink" x="0" y="0"><path id="Vector_8" d="M-0.0001,18.8569c0,1.736 1.407,3.143 3.143,3.143h3.713c1.736,0 3.143,-1.407 3.143,-3.143v-3.713c0,-1.736 -1.407,-3.143 -3.143,-3.143h-3.713c-1.736,0 -3.143,1.407 -3.143,3.143zM-0.0001,6.8559c0,1.736 1.407,3.143 3.143,3.143h3.713c1.736,0 3.143,-1.407 3.143,-3.143v-3.713c0,-1.736 -1.407,-3.143 -3.143,-3.143h-3.713c-1.736,0 -3.143,1.407 -3.143,3.143zM12.0009,18.8569c0,1.736 1.407,3.143 3.143,3.143h3.713c1.736,0 3.143,-1.407 3.143,-3.143v-3.713c0,-1.736 -1.407,-3.143 -3.143,-3.143h-3.713c-1.736,0 -3.143,1.407 -3.143,3.143zM15.1439,-0.0001c-1.736,0 -3.143,1.407 -3.143,3.143v3.713c0,1.736 1.407,3.143 3.143,3.143h3.713c1.736,0 3.143,-1.407 3.143,-3.143v-3.713c0,-1.736 -1.407,-3.143 -3.143,-3.143z" fill="currentColor"/></svg>