<svg viewBox="0 0 298 90.52" fill="none" xmlns="http://www.w3.org/2000/svg" xmlns:xlink="http://www.w3.org/1999/xlink" x="0" y="0"><defs><filter id="filter11_f_1_98" x="-0.4000000000000057" y="-60" width="298.79" height="210.52" filterUnits="userSpaceOnUse" color-interpolation-filters="sRGB">
<feFlood flood-opacity="0" result="BackgroundImageFix"/>
<feBlend mode="normal" in="SourceGraphic" in2="BackgroundImageFix" result="shape"/>
<feGaussianBlur stdDeviation="30" result="effect1_foregroundBlur_1_98"/>
</filter><radialGradient id="paint13_radial_1_98" cx="0" cy="0" r="1" gradientUnits="userSpaceOnUse" gradientTransform="translate(346.585 2204.78) scale(45.0258 45.26)">
<stop stop-color="#DC9EA8"/>
<stop offset="1" stop-color="#948EC4"/>
</radialGradient><linearGradient id="paint14_linear_1_98" x1="175.73600000000002" y1="20.300000000000182" x2="109.16900000000001" y2="20.300000000000182" gradientUnits="userSpaceOnUse">
<stop stop-color="#F4F4F4"/>
<stop offset="1" stop-color="#E8E8E8"/>
</linearGradient><linearGradient id="paint15_linear_1_98" x1="217.67299999999997" y1="31.610000000000127" x2="109.16900000000001" y2="31.610000000000127" gradientUnits="userSpaceOnUse">
<stop stop-color="#F4F4F4"/>
<stop offset="1" stop-color="#E8E8E8"/>
</linearGradient><linearGradient id="paint16_linear_1_98" x1="175.73600000000002" y1="57.570000000000164" x2="109.16900000000001" y2="57.570000000000164" gradientUnits="userSpaceOnUse">
<stop stop-color="#F4F4F4"/>
<stop offset="1" stop-color="#E8E8E8"/>
</linearGradient><linearGradient id="paint17_linear_1_98" x1="217.67299999999997" y1="68.88999999999987" x2="109.16900000000001" y2="68.88999999999987" gradientUnits="userSpaceOnUse">
<stop stop-color="#F4F4F4"/>
<stop offset="1" stop-color="#E8E8E8"/>
</linearGradient><linearGradient id="paint18_linear_1_98" x1="244.29999999999998" y1="45.26000000000022" x2="302.21299999999997" y2="45.26000000000022" gradientUnits="userSpaceOnUse">
<stop stop-color="white"/>
<stop offset="1" stop-color="white" stop-opacity="0"/>
</linearGradient><linearGradient id="paint19_linear_1_98" x1="55.916" y1="45.26000000000022" x2="-1.997000000000014" y2="45.26000000000022" gradientUnits="userSpaceOnUse">
<stop stop-color="white"/>
<stop offset="1" stop-color="white" stop-opacity="0"/>
</linearGradient><clipPath id="clip20_1_98">
<rect width="299.55" height="90.52" fill="white" transform="translate(0, 0)"/>
</clipPath><clipPath id="clip21_1_98">
<rect width="299.55" height="90.52" fill="white" transform="translate(0, 0)"/>
</clipPath><clipPath id="clip22_1_98">
<rect width="299.55" height="90.5307" fill="white" transform="translate(0, -0.009999999999763531)"/>
</clipPath></defs><g id="Container_31">
<g id="Gradient+Blur" opacity="0.15" filter="url(#filter11_f_1_98)">
<rect x="59.599999999999994" y="0" width="178.79" height="90.52" rx="34" fill="url(#paint13_radial_1_98)"/>
</g>
<g id="685941e4a8264628c72b582b_step-1.svg" clip-path="url(#clip20_1_98)">
<g id="685941e4a8264628c72b582b_step-1.svg fill" clip-path="url(#clip21_1_98)">
<g id="685941e4a8264628c72b582b_step-1.svg_2" clip-path="url(#clip22_1_98)">
<path id="Vector_82" d="M220.336,-0.01h-140.456c-8.823,0 -15.976,7.16 -15.976,15.98v58.58c0,8.82 7.153,15.98 15.976,15.98h140.456c8.823,0 15.976,-7.16 15.976,-15.98v-58.58c0,-8.82 -7.153,-15.98 -15.976,-15.98z" fill="white"/>
<g id="Group_3" opacity="0.2">
<path id="Vector_83" d="M93.193,16.47h-5.325c-4.136,0 -7.489,3.35 -7.489,7.49v5.32c0,4.14 3.353,7.49 7.489,7.49h5.325c4.136,0 7.489,-3.35 7.489,-7.49v-5.32c0,-4.14 -3.353,-7.49 -7.489,-7.49z" stroke="#282828" stroke-width="0.9985"/>
</g>
<path id="Vector_84" d="M173.073,15.97h-61.241c-1.471,0 -2.663,1.19 -2.663,2.66v3.33c0,1.47 1.192,2.66 2.663,2.66h61.241c1.471,0 2.663,-1.19 2.663,-2.66v-3.33c0,-1.47 -1.192,-2.66 -2.663,-2.66z" fill="url(#paint14_linear_1_98)"/>
<path id="Vector_85" opacity="0.5" d="M215.01,27.29h-103.178c-1.471,0 -2.663,1.19 -2.663,2.66v3.33c0,1.47 1.192,2.66 2.663,2.66h103.178c1.471,0 2.663,-1.19 2.663,-2.66v-3.33c0,-1.47 -1.192,-2.66 -2.663,-2.66z" fill="url(#paint15_linear_1_98)"/>
<path id="Vector_86" opacity="0.1" d="M79.88,45.26h140.456" stroke="#282828" stroke-width="0.9985" stroke-linecap="round"/>
<path id="Vector_87" d="M93.193,53.25h-5.325c-4.412,0 -7.988,3.57 -7.988,7.99v5.32c0,4.41 3.576,7.99 7.988,7.99h5.325c4.412,0 7.988,-3.58 7.988,-7.99v-5.32c0,-4.42 -3.576,-7.99 -7.988,-7.99z" fill="#48D1D8"/>
<path id="Vector_88" d="M85.205,64.3l3.051,2.93l6.934,-6.66" stroke="white" stroke-width="1.33133" stroke-linecap="round"/>
<path id="Vector_89" d="M173.073,53.25h-61.241c-1.471,0 -2.663,1.19 -2.663,2.66v3.33c0,1.47 1.192,2.66 2.663,2.66h61.241c1.471,0 2.663,-1.19 2.663,-2.66v-3.33c0,-1.47 -1.192,-2.66 -2.663,-2.66z" fill="url(#paint16_linear_1_98)"/>
<path id="Vector_90" opacity="0.5" d="M215.01,64.56h-103.178c-1.471,0 -2.663,1.2 -2.663,2.67v3.33c0,1.47 1.192,2.66 2.663,2.66h103.178c1.471,0 2.663,-1.19 2.663,-2.66v-3.33c0,-1.47 -1.192,-2.67 -2.663,-2.67z" fill="url(#paint17_linear_1_98)"/>
<path id="Vector_91" d="M400.731,-0.01h-140.455c-8.824,0 -15.976,7.16 -15.976,15.98v58.58c0,8.82 7.152,15.98 15.976,15.98h140.455c8.824,0 15.976,-7.16 15.976,-15.98v-58.58c0,-8.82 -7.152,-15.98 -15.976,-15.98z" fill="url(#paint18_linear_1_98)"/>
<path id="Vector_92" d="M-100.5157,-0.01h140.4557c8.823,0 15.976,7.16 15.976,15.98v58.58c0,8.82 -7.153,15.98 -15.976,15.98h-140.4557c-8.8233,0 -15.976,-7.16 -15.976,-15.98v-58.58c0,-8.82 7.1527,-15.98 15.976,-15.98z" fill="url(#paint19_linear_1_98)"/>
</g>
</g>
</g>
</g></svg>