<svg viewBox="0 0 21.926 21.9875" fill="none" xmlns="http://www.w3.org/2000/svg" xmlns:xlink="http://www.w3.org/1999/xlink" x="0" y="0"><path id="Vector_11" fill-rule="evenodd" clip-rule="evenodd" d="M-0.0002,8.4359c0.23,-2.214 1.24,-4.275 2.85,-5.818c1.6,-1.544 3.7,-2.471 5.92,-2.618c-0.06,0.043 -0.1,0.092 -0.15,0.146c-1.93,2.373 -3.13,5.25 -3.47,8.29zM5.7398,14.0019c0,0.069 0,0.137 0.01,0.205v3.923c-1.57,-0.655 -2.92,-1.717 -3.94,-3.078c-1.01,-1.36 -1.63,-2.967 -1.81,-4.652h5.15c0.12,1.037 0.33,2.058 0.65,3.047c-0.04,0.182 -0.06,0.369 -0.06,0.555zM7.1298,10.4009h2.75l-2.48,1.075l-0.08,0.036c-0.08,-0.368 -0.14,-0.739 -0.19,-1.112M18.7698,8.4359h-5.15c-0.34,-3.04 -1.54,-5.918 -3.47,-8.291c-0.05,-0.054 -0.1,-0.102 -0.15,-0.145c2.22,0.146 4.32,1.072 5.93,2.616c1.6,1.543 2.61,3.605 2.84,5.82zM7.1298,8.4359h4.51c-0.27,-2.155 -1.05,-4.216 -2.26,-6.021c-1.2,1.804 -1.98,3.867 -2.25,6.021zM15.1598,10.5439c-0.1,-0.046 -0.22,-0.07 -0.34,-0.07c-0.11,0 -0.23,0.024 -0.34,0.07l-6.24,2.706c-0.07,0.029 -0.13,0.065 -0.18,0.107c-0.17,0.093 -0.31,0.229 -0.41,0.394c-0.09,0.164 -0.14,0.352 -0.14,0.543v4.758c0,0.285 0.11,0.557 0.31,0.758c0.2,0.202 0.47,0.315 0.76,0.315c0.28,0 0.56,-0.113 0.76,-0.315c0.2,-0.201 0.31,-0.473 0.31,-0.758v-3.614l4.83,2.091c0.22,0.095 0.47,0.095 0.68,0l6.25,-2.704c0.15,-0.067 0.28,-0.176 0.38,-0.316c0.09,-0.14 0.14,-0.304 0.14,-0.471c0,-0.168 -0.05,-0.331 -0.14,-0.471c-0.1,-0.14 -0.23,-0.25 -0.38,-0.317zM10.5598,17.6319l3.18,1.378c0.34,0.148 0.71,0.225 1.08,0.225c0.38,0 0.75,-0.077 1.09,-0.225l3.18,-1.378v2.134c0,0.188 -0.06,0.37 -0.17,0.518l-0.69,-0.518l0.69,0.52l-0.01,0.003v0.003l-0.01,0.009l-0.02,0.024l-0.05,0.068c-0.05,0.055 -0.12,0.124 -0.2,0.207c-0.18,0.165 -0.43,0.374 -0.76,0.58c-0.68,0.415 -1.69,0.808 -3.05,0.808c-1.36,0 -2.36,-0.393 -3.04,-0.81c-0.35,-0.218 -0.67,-0.482 -0.96,-0.785l-0.06,-0.07l-0.01,-0.023l-0.01,-0.01v-0.003v-0.003h-0.01c-0.11,-0.149 -0.17,-0.33 -0.17,-0.517z" fill="currentColor"/></svg>