<svg viewBox="0 0 298 110.53" fill="none" xmlns="http://www.w3.org/2000/svg" xmlns:xlink="http://www.w3.org/1999/xlink" x="0" y="0"><defs><filter id="filter12_f_1_98" x="-30.206000000000017" y="-60" width="358.392" height="230.53" filterUnits="userSpaceOnUse" color-interpolation-filters="sRGB">
<feFlood flood-opacity="0" result="BackgroundImageFix"/>
<feBlend mode="normal" in="SourceGraphic" in2="BackgroundImageFix" result="shape"/>
<feGaussianBlur stdDeviation="30" result="effect1_foregroundBlur_1_98"/>
</filter><linearGradient id="paint20_linear_1_98" x1="110.96799999999996" y1="39.690000000000055" x2="179.22699999999998" y2="54.86999999999989" gradientUnits="userSpaceOnUse">
<stop stop-color="#DC9EA8"/>
<stop offset="1" stop-color="#948EC4"/>
</linearGradient><clipPath id="clip23_1_98">
<rect width="268.05" height="99.48" fill="white" transform="translate(14.969999999999914, 1.0300000000002)"/>
</clipPath><clipPath id="clip24_1_98">
<rect width="269.61" height="99.48" fill="white" transform="translate(14.969999999999914, 1.0300000000002)"/>
</clipPath></defs><g id="Container_36">
<g id="Gradient+Blur_2" opacity="0.15" filter="url(#filter12_f_1_98)">
<rect x="29.793999999999983" y="0" width="238.392" height="110.53" rx="34" fill="#48D1D8"/>
</g>
<g id="68d582781c02ab21fcc25689_Frame%202085663087.svg" clip-path="url(#clip23_1_98)">
<g id="68d582781c02ab21fcc25689_Frame%202085663087.svg fill" clip-path="url(#clip24_1_98)">
<g id="68d582781c02ab21fcc25689_Frame%202085663087.svg_2">
<path id="Vector_93" d="M70.683,12.48h-36.905c-10.243,0 -18.547,8.2 -18.547,18.32v37.36c0,10.12 8.304,18.32 18.547,18.32h36.905c10.244,0 18.548,-8.2 18.548,-18.32v-37.36c0,-10.12 -8.304,-18.32 -18.548,-18.32z" fill="white"/>
<path id="Vector_94" d="M66.259,27.48h-28.057c-4.402,0 -7.971,3.5 -7.971,7.81v28.38c0,4.31 3.569,7.81 7.971,7.81h28.057c4.403,0 7.972,-3.5 7.972,-7.81v-28.38c0,-4.31 -3.569,-7.81 -7.972,-7.81z" stroke="#48D1D8" stroke-opacity="0.3" stroke-width="2"/>
<path id="Vector_95" d="M60.121,49.15c-0.029,0.24 -0.118,0.47 -0.259,0.66l-7.899,10.68c-0.13,0.17 -0.316,0.29 -0.527,0.34c-0.073,0.01 -0.147,0.01 -0.219,0c-0.137,0 -0.272,-0.02 -0.398,-0.08c-0.182,-0.09 -0.332,-0.23 -0.43,-0.41c-0.097,-0.18 -0.138,-0.38 -0.117,-0.58l0.796,-6.18h-5.104c-0.247,-0.01 -0.488,-0.08 -0.696,-0.22c-0.202,-0.14 -0.36,-0.33 -0.458,-0.55c-0.089,-0.22 -0.123,-0.46 -0.1,-0.69c0.03,-0.24 0.12,-0.46 0.259,-0.65l7.899,-10.65c0.126,-0.17 0.305,-0.29 0.508,-0.34c0.21,-0.05 0.429,-0.03 0.626,0.06c0.189,0.09 0.343,0.23 0.438,0.42c0.088,0.16 0.126,0.35 0.11,0.54l-0.796,6.18h5.113c0.25,0 0.494,0.07 0.697,0.22c0.193,0.14 0.348,0.33 0.448,0.55c0.095,0.22 0.133,0.46 0.109,0.7z" fill="#48D1D8"/>
<path id="Vector_96" d="M174.668,1.48h-48.874c-13.566,0 -24.563,10.86 -24.563,24.27v49.46c0,13.41 10.997,24.27 24.563,24.27h48.874c13.565,0 24.563,-10.86 24.563,-24.27v-49.46c0,-13.41 -10.998,-24.27 -24.563,-24.27z" fill="white"/>
<path id="Vector_97" d="M167.546,19.48h-36.631c-6.453,0 -11.684,5.13 -11.684,11.46v37.08c0,6.33 5.231,11.46 11.684,11.46h36.631c6.453,0 11.685,-5.13 11.685,-11.46v-37.08c0,-6.33 -5.232,-11.46 -11.685,-11.46z" fill="url(#paint20_linear_1_98)" fill-opacity="0.1"/>
<path id="Vector_98" d="M162.375,49.39l-2.85,-4.91c-0.209,-0.35 -0.503,-0.65 -0.852,-0.85c-0.35,-0.21 -0.745,-0.32 -1.147,-0.32h-2.237v-0.34c0,-0.5 -0.096,-0.99 -0.28,-1.45c-0.184,-0.46 -0.454,-0.88 -0.794,-1.23c-0.687,-0.71 -1.619,-1.11 -2.59,-1.11h-13.323c-0.725,-0.01 -1.436,0.21 -2.039,0.63c-0.604,0.41 -1.076,1.01 -1.352,1.7c-0.183,0.46 -0.276,0.96 -0.273,1.46v12.4c0.001,0.58 0.205,1.14 0.575,1.58c0.37,0.44 0.88,0.72 1.437,0.8c-0.006,0.12 -0.006,0.25 0,0.37c-0.005,0.59 0.104,1.17 0.322,1.71c0.217,0.54 0.538,1.03 0.943,1.45c0.397,0.42 0.873,0.77 1.399,1c0.526,0.24 1.092,0.36 1.665,0.37c1.144,-0.01 2.239,-0.48 3.05,-1.32c0.81,-0.84 1.27,-1.97 1.281,-3.16c0.007,-0.11 0.007,-0.22 0,-0.34h7.353c-0.007,0.12 -0.007,0.23 0,0.34c-0.005,0.59 0.105,1.17 0.321,1.72c0.218,0.54 0.539,1.03 0.945,1.44c0.396,0.43 0.873,0.77 1.399,1.01c0.527,0.24 1.094,0.36 1.667,0.37c1.145,-0.01 2.239,-0.49 3.05,-1.33c0.81,-0.83 1.269,-1.96 1.279,-3.15c0.007,-0.11 0.007,-0.23 0,-0.34h1.01c0.263,-0.01 0.515,-0.12 0.701,-0.31c0.187,-0.19 0.294,-0.45 0.298,-0.73v-3.98c0,-1.23 -0.332,-2.44 -0.958,-3.48zM143.297,58.12c0.001,0.32 -0.06,0.63 -0.18,0.92c-0.118,0.29 -0.292,0.56 -0.512,0.77c-0.444,0.44 -1.034,0.69 -1.646,0.69c-0.612,0 -1.201,-0.25 -1.645,-0.69c-0.217,-0.22 -0.388,-0.49 -0.505,-0.78c-0.116,-0.29 -0.175,-0.61 -0.174,-0.92c-0.006,-0.33 0.058,-0.66 0.187,-0.95c0.176,-0.44 0.48,-0.8 0.865,-1.05c0.395,-0.27 0.86,-0.41 1.332,-0.4c0.452,0 0.891,0.14 1.266,0.4c0.383,0.25 0.684,0.62 0.867,1.05c0.13,0.29 0.2,0.62 0.199,0.95zM147.627,51.23h-6.66c-0.353,0 -0.69,-0.14 -0.941,-0.4c-0.25,-0.26 -0.391,-0.61 -0.392,-0.97c-0.001,-0.19 0.034,-0.37 0.101,-0.53c0.066,-0.17 0.165,-0.32 0.288,-0.45c0.125,-0.13 0.271,-0.23 0.433,-0.3c0.162,-0.07 0.335,-0.1 0.51,-0.1h6.661c0.353,0 0.69,0.14 0.94,0.4c0.25,0.26 0.391,0.61 0.392,0.98c0,0.18 -0.034,0.36 -0.101,0.52c-0.067,0.17 -0.165,0.32 -0.289,0.45c-0.123,0.13 -0.27,0.23 -0.433,0.3c-0.161,0.07 -0.334,0.1 -0.509,0.1zM147.627,46.49h-6.66c-0.353,0 -0.69,-0.14 -0.941,-0.4c-0.25,-0.26 -0.391,-0.61 -0.392,-0.97c-0.001,-0.19 0.034,-0.36 0.101,-0.53c0.067,-0.17 0.165,-0.32 0.289,-0.45c0.124,-0.13 0.271,-0.23 0.432,-0.3c0.162,-0.07 0.335,-0.1 0.51,-0.1h6.661c0.352,0 0.69,0.14 0.94,0.4c0.249,0.26 0.39,0.61 0.392,0.98c0,0.18 -0.034,0.36 -0.101,0.52c-0.067,0.17 -0.165,0.32 -0.289,0.45c-0.123,0.13 -0.27,0.23 -0.433,0.3c-0.161,0.07 -0.334,0.1 -0.509,0.1zM159.284,58.12c0,0.32 -0.061,0.63 -0.18,0.92c-0.12,0.29 -0.295,0.56 -0.514,0.77c-0.444,0.44 -1.033,0.69 -1.645,0.69c-0.612,0 -1.201,-0.25 -1.645,-0.69c-0.216,-0.22 -0.389,-0.49 -0.505,-0.78c-0.116,-0.29 -0.176,-0.61 -0.174,-0.92c-0.006,-0.5 0.149,-0.99 0.441,-1.4c0.328,-0.45 0.799,-0.77 1.331,-0.9h0.334c0.061,-0.02 0.124,-0.02 0.185,0h0.268c0.404,0.04 0.79,0.2 1.118,0.45c0.329,0.25 0.587,0.59 0.746,0.98c0.131,0.3 0.2,0.62 0.2,0.95z" fill="#48D1D8"/>
<path id="Vector_99" d="M156.942,55.7c-0.061,-0.02 -0.126,-0.02 -0.187,0z" fill="#48D1D8"/>
<path id="Vector_100" d="M179.302,12.48h-8.143c-4.379,0 -7.928,3.4 -7.928,7.6v7.8c0,4.2 3.549,7.6 7.928,7.6h8.143c4.379,0 7.929,-3.4 7.929,-7.6v-7.8c0,-4.2 -3.55,-7.6 -7.929,-7.6z" fill="#48D1D8"/>
<path id="Vector_101" d="M179.123,12.18h-7.959c-4.279,0 -7.748,3.47 -7.748,7.75v7.96c0,4.28 3.469,7.75 7.748,7.75h7.959c4.28,0 7.749,-3.47 7.749,-7.75v-7.96c0,-4.28 -3.469,-7.75 -7.749,-7.75z" stroke="white" stroke-width="3.55909"/>
<path id="Vector_102" d="M171.165,23.78l2.337,2.24l5.31,-5.1" stroke="white" stroke-width="1.77955" stroke-linecap="round"/>
<path id="Vector_103" d="M263.683,12.48h-36.905c-10.243,0 -18.547,8.2 -18.547,18.32v37.36c0,10.12 8.304,18.32 18.547,18.32h36.905c10.244,0 18.548,-8.2 18.548,-18.32v-37.36c0,-10.12 -8.304,-18.32 -18.548,-18.32z" fill="white"/>
<path id="Vector_104" d="M260.259,27.48h-28.057c-4.402,0 -7.971,3.5 -7.971,7.81v28.38c0,4.31 3.569,7.81 7.971,7.81h28.057c4.403,0 7.972,-3.5 7.972,-7.81v-28.38c0,-4.31 -3.569,-7.81 -7.972,-7.81z" stroke="#48D1D8" stroke-opacity="0.3" stroke-width="2"/>
<path id="Vector_105" fill-rule="evenodd" clip-rule="evenodd" d="M242.952,39.6c0.858,0 1.681,0.35 2.289,0.96c0.607,0.62 0.947,1.46 0.947,2.33v8.7l0.011,0.03c0.023,0.04 0.056,0.07 0.093,0.1c0.881,0.71 1.522,1.67 1.837,2.76c0.315,1.09 0.286,2.26 -0.081,3.33c-0.367,1.08 -1.055,2.01 -1.969,2.67c-0.913,0.66 -2.006,1.01 -3.126,1.01c-1.122,0 -2.214,-0.35 -3.127,-1.01c-0.914,-0.66 -1.602,-1.59 -1.969,-2.67c-0.367,-1.07 -0.396,-2.24 -0.082,-3.33c0.316,-1.09 0.957,-2.05 1.837,-2.76c0.028,-0.02 0.053,-0.05 0.073,-0.07l0.03,-0.06v-8.7c0,-0.87 0.341,-1.71 0.948,-2.33c0.607,-0.61 1.431,-0.96 2.289,-0.96zM246.188,56.02h-6.473c0,0.85 0.328,1.67 0.915,2.29c0.586,0.61 1.384,0.97 2.227,0.99c0.842,0.03 1.66,-0.28 2.281,-0.86c0.621,-0.58 0.996,-1.38 1.045,-2.23zM251.582,43.98c0.264,0 0.519,0.1 0.716,0.28c0.198,0.18 0.324,0.42 0.356,0.69l0.007,0.12v1.39l1.184,-0.69c0.238,-0.14 0.521,-0.18 0.789,-0.12c0.269,0.06 0.503,0.23 0.655,0.46c0.151,0.24 0.209,0.52 0.161,0.8c-0.049,0.27 -0.199,0.52 -0.421,0.68l-0.105,0.07l-1.185,0.7l1.185,0.69c0.238,0.14 0.414,0.37 0.492,0.64c0.079,0.26 0.054,0.55 -0.069,0.8c-0.124,0.25 -0.337,0.44 -0.594,0.54c-0.259,0.09 -0.543,0.08 -0.796,-0.03l-0.112,-0.05l-1.184,-0.7v1.39c0,0.28 -0.106,0.55 -0.295,0.75c-0.188,0.2 -0.447,0.33 -0.721,0.34c-0.275,0.02 -0.544,-0.07 -0.755,-0.25c-0.211,-0.18 -0.347,-0.43 -0.379,-0.71l-0.007,-0.13v-1.39l-1.185,0.7c-0.239,0.14 -0.522,0.18 -0.789,0.12c-0.269,-0.07 -0.504,-0.23 -0.655,-0.47c-0.152,-0.23 -0.209,-0.51 -0.161,-0.79c0.048,-0.28 0.199,-0.52 0.42,-0.69l0.106,-0.07l1.184,-0.69l-1.184,-0.7c-0.24,-0.13 -0.419,-0.36 -0.499,-0.63c-0.08,-0.27 -0.056,-0.56 0.069,-0.81c0.124,-0.25 0.338,-0.44 0.597,-0.54c0.26,-0.09 0.547,-0.08 0.799,0.03l0.113,0.06l1.185,0.69v-1.39c0,-0.29 0.113,-0.56 0.315,-0.77c0.202,-0.2 0.477,-0.32 0.763,-0.32z" fill="#48D1D8"/>
</g>
</g>
</g>
</g></svg>