<svg viewBox="0 0 118 22" fill="none" xmlns="http://www.w3.org/2000/svg" xmlns:xlink="http://www.w3.org/1999/xlink" x="0" y="0"><defs><clipPath id="clip7_1_98">
<rect width="22" height="22" fill="white" transform="translate(96.0012999999999, 0.00030000000000995897)"/>
</clipPath><clipPath id="clip8_1_98">
<rect width="22" height="22" fill="white" transform="translate(96.0012999999999, 0.00030000000000995897)"/>
</clipPath><clipPath id="clip9_1_98">
<rect width="22" height="22" fill="white" transform="translate(96.0012999999999, 0.00030000000000995897)"/>
</clipPath></defs><g id="Container_8">
<g id="SVG_3">
<path id="Vector_3" d="M15.2013,12.9333l2.6,7.988l-6.8,-4.939zM22.0013,7.9943h-8.4l-2.6,-7.994l-2.6,7.996l-8.4,-0.011l6.8,4.948l-2.6,7.987l6.8,-4.938l4.2,-3.049z" fill="#FFCC00"/>
</g>
<g id="SVG_4">
<path id="Vector_4" d="M39.2013,12.9333l2.6,7.988l-6.8,-4.939zM46.0013,7.9943h-8.4l-2.6,-7.994l-2.6,7.996l-8.4,-0.011l6.8,4.948l-2.6,7.987l6.8,-4.938l4.2,-3.049z" fill="#FFCC00"/>
</g>
<g id="SVG_5">
<path id="Vector_5" d="M63.2013,12.9333l2.6,7.988l-6.8,-4.939zM70.0013,7.9943h-8.4l-2.6,-7.994l-2.6,7.996l-8.4,-0.011l6.8,4.948l-2.6,7.987l6.8,-4.938l4.2,-3.049z" fill="#FFCC00"/>
</g>
<g id="SVG_6">
<path id="Vector_6" d="M87.2013,12.9333l2.6,7.988l-6.8,-4.939zM94.0013,7.9943h-8.4l-2.6,-7.994l-2.6,7.996l-8.4,-0.011l6.8,4.948l-2.6,7.987l6.8,-4.938l4.2,-3.049z" fill="#FFCC00"/>
</g>
<g id="half star icon" clip-path="url(#clip7_1_98)">
<g id="68cc9517a151641726ad634d_Vector.svg fill" clip-path="url(#clip8_1_98)">
<g id="68cc9517a151641726ad634d_Vector.svg" clip-path="url(#clip9_1_98)">
<path id="Vector_7" d="M111.2013,12.9323l2.6,7.989l-6.8,-4.939zM118.0013,7.9943h-8.4l-2.6,-7.994l-2.6,7.996l-8.4,-0.011l6.8,4.947l-2.6,7.988l6.8,-4.938l4.2,-3.05z" fill="#CECECE"/>
</g>
</g>
</g>
</g></svg>