<svg viewBox="0 0 21.3965 20.9523" fill="none" xmlns="http://www.w3.org/2000/svg" xmlns:xlink="http://www.w3.org/1999/xlink" x="0" y="0"><path id="Vector_10" fill-rule="evenodd" clip-rule="evenodd" d="M18.4554,0c0.954,0 1.902,0.492 2.23,1.367l0.093,0.258l0.096,0.293l0.098,0.331l0.094,0.363l0.089,0.394l0.042,0.207l0.074,0.437c0.281,1.875 0.192,4.431 -1.371,7.024l-0.194,0.311c-1.639,2.53 -1.521,5.077 -1.151,6.731l0.091,0.366l0.046,0.17l0.094,0.314l0.094,0.274c0.335,0.933 -0.388,2.014 -1.621,2.106l-0.171,0.006h-14.148c-0.953,0 -1.902,-0.492 -2.229,-1.367l-0.092,-0.258l-0.098,-0.293l-0.097,-0.331l-0.094,-0.362l-0.09,-0.394c-0.029,-0.136 -0.056,-0.277 -0.08,-0.422l-0.067,-0.451l-0.052,-0.475c-0.155,-1.786 0.08,-4.039 1.454,-6.321l0.194,-0.311c1.64,-2.529 1.52,-5.077 1.151,-6.73l-0.089,-0.365l-0.048,-0.17l-0.094,-0.314l-0.094,-0.275c-0.335,-0.932 0.389,-2.013 1.621,-2.106l0.172,-0.007z" fill="currentColor"/></svg>